<svg width="80" height="80" viewBox="0 0 80 80" fill="none" xmlns="http://www.w3.org/2000/svg">
<g clip-path="url(#clip0)">
<path d="M70.7305 37.3971H42.6055V9.27214C42.6055 7.83385 41.4396 6.66797 40.0013 6.66797C38.563 6.66797 37.3971 7.83385 37.3971 9.27214V37.3971H9.27214C7.83385 37.3971 6.66797 38.563 6.66797 40.0013C6.66797 41.4396 7.83385 42.6055 9.27214 42.6055H37.3971V70.7305C37.3971 72.1688 38.563 73.3346 40.0013 73.3346C41.4396 73.3346 42.6055 72.1688 42.6055 70.7305V42.6055H70.7305C72.1688 42.6055 73.3346 41.4396 73.3346 40.0013C73.3346 38.563 72.1688 37.3971 70.7305 37.3971Z" fill="#8A8A8A"/>
</g>
<defs>
<clipPath id="clip0">
<rect width="66.6667" height="66.6667" fill="white" transform="translate(73.334 73.334) rotate(-180)"/>
</clipPath>
</defs>
</svg>
