<svg width="28" height="28" viewBox="0 0 28 28" fill="none" xmlns="http://www.w3.org/2000/svg">
<g clip-path="url(#clip0)">
<path d="M24.4384 19.4583C22.7585 18.0382 21.7952 15.9626 21.7952 13.7638V10.666C21.7952 6.7561 18.8907 3.51941 15.1285 2.97721V1.77706C15.1285 1.16264 14.6307 0.666016 14.0173 0.666016C13.4041 0.666016 12.9062 1.16264 12.9062 1.77706V2.97721C9.14282 3.51941 6.23958 6.7561 6.23958 10.666V13.7638C6.23958 15.9626 5.27625 18.0382 3.58618 19.4671C3.15405 19.8372 2.90625 20.3749 2.90625 20.9437C2.90625 22.0161 3.77844 22.8883 4.85063 22.8883H23.184C24.2563 22.8883 25.1285 22.0161 25.1285 20.9437C25.1285 20.3749 24.8807 19.8372 24.4384 19.4583Z" fill="#444444"/>
<path d="M14.0173 27.3333C16.0296 27.3333 17.713 25.8988 18.0995 24H9.93506C10.3218 25.8988 12.0052 27.3333 14.0173 27.3333Z" fill="#444444"/>
</g>
<defs>
<clipPath id="clip0">
<rect width="26.6667" height="26.6667" fill="white" transform="translate(0.666748 0.666016)"/>
</clipPath>
</defs>
</svg>
