<svg width="32" height="32" viewBox="0 0 32 32" fill="none" xmlns="http://www.w3.org/2000/svg">
<rect width="32" height="32" rx="4" fill="#444444"/>
<g clip-path="url(#clip0)">
<path d="M25.2188 15.2188H16.7812V6.78125C16.7812 6.34977 16.4315 6 16 6C15.5685 6 15.2188 6.34977 15.2188 6.78125V15.2188H6.78125C6.34977 15.2188 6 15.5685 6 16C6 16.4315 6.34977 16.7812 6.78125 16.7812H15.2188V25.2188C15.2188 25.6502 15.5685 26 16 26C16.4315 26 16.7812 25.6502 16.7812 25.2188V16.7812H25.2188C25.6502 16.7812 26 16.4315 26 16C26 15.5685 25.6502 15.2188 25.2188 15.2188Z" fill="white"/>
</g>
<defs>
<clipPath id="clip0">
<rect width="20" height="20" fill="white" transform="translate(26 26) rotate(-180)"/>
</clipPath>
</defs>
</svg>
