<svg width="25" height="24" viewBox="0 0 25 24" fill="none" xmlns="http://www.w3.org/2000/svg">
<g clip-path="url(#clip0)">
<g clip-path="url(#clip1)">
<path d="M17.6576 16.8615C16.3776 16.8615 15.3223 17.8944 15.3223 19.1967C15.3223 20.4767 16.3552 21.532 17.6576 21.532C18.9375 21.532 19.9928 20.4991 19.9928 19.1967C19.9704 17.9168 18.9375 16.8615 17.6576 16.8615Z" fill="white"/>
<path d="M21.7661 5.72389C21.7212 5.72389 21.6539 5.70144 21.5865 5.70144H7.44004L7.21549 4.19697C7.08076 3.20896 6.22748 2.46796 5.21702 2.46796H3.39819C2.90418 2.46796 2.5 2.87214 2.5 3.36615C2.5 3.86015 2.90418 4.26434 3.39819 4.26434H5.21702C5.32929 4.26434 5.41911 4.35415 5.44157 4.46643L6.83376 13.9423C7.0134 15.1324 8.04631 16.0306 9.25887 16.0306H18.6C19.7677 16.0306 20.7781 15.1998 21.0251 14.0546L22.4847 6.75681C22.5745 6.28526 22.2601 5.81371 21.7661 5.72389Z" fill="white"/>
<path d="M11.9309 19.0845C11.886 17.8495 10.853 16.8615 9.61804 16.8615C8.31566 16.9288 7.32766 18.0066 7.37257 19.2866C7.41748 20.5216 8.42794 21.5096 9.66295 21.5096H9.70786C10.9878 21.4422 11.9982 20.3644 11.9309 19.0845Z" fill="white"/>
</g>
</g>
<defs>
<clipPath id="clip0">
<rect width="20" height="20" fill="white" transform="translate(22.5 22) rotate(-180)"/>
</clipPath>
<clipPath id="clip1">
<rect width="20" height="20" fill="white" transform="translate(2.5 2)"/>
</clipPath>
</defs>
</svg>
