<svg width="32" height="32" viewBox="0 0 32 32" fill="none" xmlns="http://www.w3.org/2000/svg">
<g clip-path="url(#clip0)">
<path fill-rule="evenodd" clip-rule="evenodd" d="M15.9993 29.3334C23.3631 29.3334 29.3327 23.3638 29.3327 16C29.3327 8.63622 23.3631 2.66669 15.9993 2.66669C8.63555 2.66669 2.66602 8.63622 2.66602 16C2.66602 23.3638 8.63555 29.3334 15.9993 29.3334ZM13.139 12.828C13.139 13.5023 12.405 13.8397 12.0696 13.2547C11.7522 12.701 11.5704 12.0533 11.5704 11.3598C11.5704 9.31627 13.1468 7.66669 15.0998 7.66669C17.0527 7.66669 18.6292 9.31627 18.6292 11.3598C18.6292 12.0533 18.4474 12.701 18.1299 13.2547C17.7945 13.8397 17.0606 13.5023 17.0606 12.828V11.3598C17.0606 10.2272 16.1821 9.30806 15.0998 9.30806C14.0174 9.30806 13.139 10.2272 13.139 11.3598V12.828ZM17.2959 16.3742L20.8566 18.2289C21.2723 18.4095 21.5704 18.8527 21.5704 19.3615C21.5704 19.4107 21.5625 19.4681 21.5547 19.5256L20.9664 23.8506C20.8802 24.4497 20.4253 24.9011 19.837 24.9011H14.5115C14.19 24.9011 13.8919 24.7616 13.6802 24.54L10.4294 21.1385C10.0798 20.7727 10.078 20.1972 10.4253 19.8293C10.5821 19.6651 10.8017 19.5584 11.0449 19.5584C11.0919 19.5584 11.132 19.5657 11.1721 19.573C11.1921 19.5767 11.2122 19.5803 11.2331 19.5831L13.9233 20.174V11.3598C13.9233 10.6786 14.4488 10.1287 15.0998 10.1287C15.7508 10.1287 16.2762 10.6786 16.2762 11.3598V16.2839H16.8723C17.0213 16.2839 17.1625 16.3167 17.2959 16.3742Z" fill="white"/>
</g>
<defs>
<clipPath id="clip0">
<rect width="26.6667" height="26.6667" fill="white" transform="translate(2.66602 2.66669)"/>
</clipPath>
</defs>
</svg>
