<svg width="20" height="20" viewBox="0 0 20 20" fill="none" xmlns="http://www.w3.org/2000/svg">
<g clip-path="url(#clip0)">
<path d="M11.9591 4.46484L2.78884 13.6357C2.7427 13.682 2.70939 13.7404 2.69352 13.8032L1.67709 17.883C1.64669 18.0058 1.68278 18.1364 1.7724 18.226C1.84022 18.2938 1.93262 18.3314 2.02714 18.3314C2.05609 18.3314 2.0857 18.3278 2.11452 18.3205L6.19426 17.304C6.25785 17.2881 6.31562 17.2549 6.36175 17.2088L15.5328 8.03855L11.9591 4.46484Z" fill="#444444"/>
<path d="M17.8045 3.21583L16.7837 2.19503C16.1014 1.51278 14.9123 1.51344 14.2309 2.19503L12.9805 3.44545L16.554 7.01902L17.8045 5.76861C18.1452 5.42795 18.333 4.97453 18.333 4.49228C18.333 4.01004 18.1452 3.55662 17.8045 3.21583Z" fill="#444444"/>
</g>
<defs>
<clipPath id="clip0">
<rect width="16.6667" height="16.6667" fill="white" transform="translate(1.6665 1.66602)"/>
</clipPath>
</defs>
</svg>
