<svg width="25" height="24" viewBox="0 0 25 24" fill="none" xmlns="http://www.w3.org/2000/svg">
<g clip-path="url(#clip0)">
<g clip-path="url(#clip1)">
<path d="M12.5 20.8873C12.2153 20.8873 11.9408 20.7842 11.7268 20.5968C10.9189 19.8903 10.1399 19.2264 9.45267 18.6408L9.44916 18.6377C7.43423 16.9207 5.69427 15.4378 4.48364 13.9771C3.13034 12.3441 2.5 10.7958 2.5 9.10434C2.5 7.46097 3.06351 5.94485 4.08661 4.83508C5.12192 3.71219 6.54251 3.09375 8.08716 3.09375C9.24164 3.09375 10.2989 3.45874 11.2296 4.1785C11.6992 4.54181 12.1249 4.98645 12.5 5.5051C12.8752 4.98645 13.3008 4.54181 13.7706 4.1785C14.7012 3.45874 15.7585 3.09375 16.913 3.09375C18.4575 3.09375 19.8782 3.71219 20.9135 4.83508C21.9366 5.94485 22.5 7.46097 22.5 9.10434C22.5 10.7958 21.8698 12.3441 20.5165 13.9769C19.3059 15.4378 17.5661 16.9205 15.5515 18.6374C14.863 19.224 14.0828 19.8889 13.273 20.5971C13.0592 20.7842 12.7846 20.8873 12.5 20.8873ZM8.08716 4.26532C6.87363 4.26532 5.75882 4.74963 4.94781 5.62915C4.12476 6.52194 3.67142 7.75607 3.67142 9.10434C3.67142 10.5269 4.20013 11.7992 5.38559 13.2296C6.53137 14.6122 8.23563 16.0645 10.2089 17.7462L10.2126 17.7492C10.9024 18.3371 11.6844 19.0036 12.4983 19.7153C13.3171 19.0023 14.1003 18.3347 14.7916 17.7458C16.7647 16.0642 18.4688 14.6122 19.6146 13.2296C20.7999 11.7992 21.3286 10.5269 21.3286 9.10434C21.3286 7.75607 20.8752 6.52194 20.0522 5.62915C19.2413 4.74963 18.1264 4.26532 16.913 4.26532C16.024 4.26532 15.2078 4.54791 14.4872 5.10516C13.8449 5.60199 13.3975 6.23004 13.1352 6.66949C13.0003 6.89548 12.7629 7.03036 12.5 7.03036C12.2371 7.03036 11.9997 6.89548 11.8648 6.66949C11.6026 6.23004 11.1552 5.60199 10.5128 5.10516C9.79218 4.54791 8.97598 4.26532 8.08716 4.26532Z" fill="#BA2636"/>
</g>
</g>
<defs>
<clipPath id="clip0">
<rect width="20" height="20" fill="white" transform="translate(2.5 2)"/>
</clipPath>
<clipPath id="clip1">
<rect width="20" height="20" fill="white" transform="translate(2.5 2)"/>
</clipPath>
</defs>
</svg>
