<svg width="20" height="20" viewBox="0 0 20 20" fill="none" xmlns="http://www.w3.org/2000/svg">
<path d="M6.00242 9.78709C6.22979 9.5438 6.59992 9.54311 6.82809 9.78554L8.61332 11.6824L13.1688 6.84769C13.396 6.60655 13.7637 6.6053 13.9924 6.8449C14.2235 7.08705 14.2247 7.48286 13.9951 7.72659L8.78449 13.2575C8.68997 13.3578 8.53678 13.3577 8.4424 13.2572L6.00348 10.6609C5.77681 10.4196 5.77634 10.029 6.00242 9.78709Z" fill="#444444"/>
<path fill-rule="evenodd" clip-rule="evenodd" d="M9.99984 1.66602C5.47603 1.66602 1.6665 5.47554 1.6665 9.99935C1.6665 14.5232 5.47603 18.3327 9.99984 18.3327C14.5236 18.3327 18.3332 14.5232 18.3332 9.99935C18.3332 5.47554 14.5236 1.66602 9.99984 1.66602ZM2.74984 9.99935C2.74984 6.07385 6.07434 2.74935 9.99984 2.74935C13.9253 2.74935 17.2498 6.07385 17.2498 9.99935C17.2498 13.9249 13.9253 17.2494 9.99984 17.2494C6.07434 17.2494 2.74984 13.9249 2.74984 9.99935Z" fill="#444444"/>
</svg>
