<svg width="24" height="24" viewBox="0 0 24 24" fill="none" xmlns="http://www.w3.org/2000/svg">
<g clip-path="url(#clip0)">
<g clip-path="url(#clip1)">
<path d="M2.63875 20.2168L7.39878 15.2662C6.17489 13.8113 5.50431 11.9807 5.50431 10.075C5.50431 5.62251 9.12683 2 13.5793 2C18.0318 2 21.6543 5.62251 21.6543 10.075C21.6543 14.5275 18.0318 18.15 13.5793 18.15C11.9078 18.15 10.3149 17.6458 8.95304 16.6888L4.15685 21.677C3.95637 21.8852 3.68674 22 3.39779 22C3.1243 22 2.86485 21.8957 2.66789 21.7061C2.24939 21.3034 2.23605 20.6357 2.63875 20.2168ZM13.5793 4.10652C10.2882 4.10652 7.61083 6.78391 7.61083 10.075C7.61083 13.3661 10.2882 16.0435 13.5793 16.0435C16.8704 16.0435 19.5478 13.3661 19.5478 10.075C19.5478 6.78391 16.8704 4.10652 13.5793 4.10652Z" fill="#444444"/>
</g>
</g>
<defs>
<clipPath id="clip0">
<rect width="20" height="20" fill="white" transform="matrix(1 -8.74228e-08 -8.74228e-08 -1 2 22)"/>
</clipPath>
<clipPath id="clip1">
<rect width="20" height="20" fill="white" transform="matrix(-1 0 0 1 22 2)"/>
</clipPath>
</defs>
</svg>
