<svg width="24" height="25" viewBox="0 0 24 25" fill="none" xmlns="http://www.w3.org/2000/svg">
<g clip-path="url(#clip0)">
<g clip-path="url(#clip1)">
<path d="M21.9965 9.62207H2V10.4554C2 10.8974 2.17559 11.3214 2.48816 11.6339C2.80072 11.9465 3.22464 12.1221 3.66667 12.1221H6.16667C6.60869 12.1221 7.03262 11.9465 7.34518 11.6339C7.65774 11.3214 7.83333 10.8974 7.83333 10.4554C7.83333 10.8974 8.00893 11.3214 8.32149 11.6339C8.63405 11.9465 9.05797 12.1221 9.5 12.1221H14.5C14.942 12.1221 15.3659 11.9465 15.6785 11.6339C15.9911 11.3214 16.1667 10.8974 16.1667 10.4554C16.1667 10.8974 16.3423 11.3214 16.6548 11.6339C16.9674 11.9465 17.3913 12.1221 17.8333 12.1221H20.3333C20.7754 12.1221 21.1993 11.9465 21.5118 11.6339C21.8244 11.3214 22 10.8974 22 10.4554V9.62207H21.9965Z" fill="white"/>
<path d="M21.7952 8.7884L20.3012 3.55924C20.2514 3.38517 20.1463 3.23204 20.0017 3.12303C19.8572 3.01403 19.681 2.95507 19.5 2.95508H15.6831L16.8498 8.7884H21.7952Z" fill="white"/>
<path d="M8.31692 2.95508H4.50004C4.31898 2.95507 4.14285 3.01403 3.99828 3.12303C3.85371 3.23204 3.74858 3.38517 3.69879 3.55924L2.20483 8.7884H7.15025L8.31692 2.95508Z" fill="white"/>
<path d="M13.9836 2.95508H10.0165L8.84985 8.7884H15.1503L13.9836 2.95508Z" fill="white"/>
<path d="M17.8333 12.9555C17.2179 12.956 16.6242 12.7287 16.1666 12.3174C15.7089 12.7287 15.1152 12.956 14.4999 12.9555H9.49992C8.8846 12.956 8.29089 12.7287 7.83325 12.3174C7.37561 12.7287 6.7819 12.956 6.16658 12.9555H3.66659C3.38251 12.9549 3.10065 12.9056 2.83325 12.8097V22.1222C2.83325 22.3432 2.92105 22.5552 3.07733 22.7114C3.23361 22.8677 3.44557 22.9555 3.66659 22.9555H5.33325V15.4555C5.33325 15.2345 5.42105 15.0225 5.57733 14.8663C5.73361 14.71 5.94557 14.6222 6.16658 14.6222H10.3333C10.5543 14.6222 10.7662 14.71 10.9225 14.8663C11.0788 15.0225 11.1666 15.2345 11.1666 15.4555V22.9555H20.3333C20.5543 22.9555 20.7662 22.8677 20.9225 22.7114C21.0788 22.5552 21.1666 22.3432 21.1666 22.1222V12.8097C20.8992 12.9056 20.6173 12.9549 20.3333 12.9555H17.8333ZM18.6666 17.9555C18.6666 18.1765 18.5788 18.3885 18.4225 18.5448C18.2662 18.701 18.0543 18.7888 17.8333 18.7888H13.6666C13.4456 18.7888 13.2336 18.701 13.0773 18.5448C12.921 18.3885 12.8333 18.1765 12.8333 17.9555V15.4555C12.8333 15.2345 12.921 15.0225 13.0773 14.8663C13.2336 14.71 13.4456 14.6222 13.6666 14.6222H17.8333C18.0543 14.6222 18.2662 14.71 18.4225 14.8663C18.5788 15.0225 18.6666 15.2345 18.6666 15.4555V17.9555Z" fill="white"/>
</g>
</g>
<defs>
<clipPath id="clip0">
<rect width="20" height="20" fill="white" transform="translate(22 22.9551) rotate(-180)"/>
</clipPath>
<clipPath id="clip1">
<rect width="20" height="20" fill="white" transform="translate(2 2.95508)"/>
</clipPath>
</defs>
</svg>
